<mxfile host="app.diagrams.net" modified="2021-04-15T07:03:28.265Z" agent="5.0 (Windows NT 10.0; WOW64) AppleWebKit/537.36 (KHTML, like Gecko) Chrome/74.0.3713.0 Safari/537.36" etag="M-AjYHpYlxdvgVSem8ZB" version="14.6.0" type="github">
  <diagram id="1wbFwNBLXc43IMeP6-OZ" name="Page-1">
    <mxGraphModel dx="1038" dy="548" grid="1" gridSize="10" guides="1" tooltips="1" connect="1" arrows="1" fold="1" page="1" pageScale="1" pageWidth="827" pageHeight="1169" math="0" shadow="0">
      <root>
        <mxCell id="0" />
        <mxCell id="1" parent="0" />
        <mxCell id="p18JvRJfaMaK2EZHUpng-3" style="edgeStyle=orthogonalEdgeStyle;rounded=0;orthogonalLoop=1;jettySize=auto;html=1;" edge="1" parent="1" source="p18JvRJfaMaK2EZHUpng-1">
          <mxGeometry relative="1" as="geometry">
            <mxPoint x="290" y="300" as="targetPoint" />
          </mxGeometry>
        </mxCell>
        <mxCell id="p18JvRJfaMaK2EZHUpng-1" value="this&amp;nbsp; is first&amp;nbsp; file&amp;nbsp; from&lt;br&gt;&amp;nbsp;mark 。。。。所噶；" style="rounded=1;whiteSpace=wrap;html=1;" vertex="1" parent="1">
          <mxGeometry x="150" y="70" width="280" height="120" as="geometry" />
        </mxCell>
        <mxCell id="p18JvRJfaMaK2EZHUpng-2" value="Text" style="text;html=1;strokeColor=none;fillColor=none;align=center;verticalAlign=middle;whiteSpace=wrap;rounded=0;" vertex="1" parent="1">
          <mxGeometry x="310" y="220" width="40" height="20" as="geometry" />
        </mxCell>
      </root>
    </mxGraphModel>
  </diagram>
</mxfile>
